<?xml version="1.0" standalone="no"?><!DOCTYPE svg PUBLIC "-//W3C//DTD SVG 1.1//EN" "http://www.w3.org/Graphics/SVG/1.1/DTD/svg11.dtd"><svg class="icon" width="200px" height="200.00px" viewBox="0 0 1024 1024" version="1.1" xmlns="http://www.w3.org/2000/svg"><path fill="#000000" d="M845.211011 958.708971H178.788989c-27.995611 0-50.774407-22.778796-50.774407-50.774407V421.840584c0-28.004821 22.778796-50.783617 50.774407-50.783617h666.422022c27.995611 0 50.774407 22.778796 50.774407 50.783617v486.09398c0 27.995611-22.778796 50.774407-50.774407 50.774407zM178.788989 409.900647c-6.467295 0-11.929704 5.471618-11.929704 11.939937v486.09398c0 6.467295 5.462408 11.930727 11.929704 11.930727h666.422022c6.467295 0 11.929704-5.462408 11.929704-11.930727V421.840584c0-6.467295-5.462408-11.939937-11.929704-11.939937H178.788989z"  /><path fill="#000000" d="M194.758706 391.047254a309.993217 309.993217 0 0 1-0.095168-8.402367c0-174.989453 142.347009-317.354881 317.335439-317.354882s317.354881 142.365428 317.354881 317.354882h-38.844703c0-153.575748-124.935454-278.510178-278.510178-278.510178-153.556305 0-278.491759 124.935454-278.491759 278.510178 0 2.427282 0.019443 4.855588 0.095168 7.26445l-38.84368 1.137917zM512 762.704902c-38.806841 0-70.38607-31.57002-70.38607-70.37686s31.580253-70.38607 70.38607-70.386071 70.38607 31.580253 70.38607 70.386071-31.580253 70.37686-70.38607 70.37686z m0-101.919251c-17.393135 0-31.54239 14.149255-31.54239 31.542391 0 17.382902 14.149255 31.532157 31.54239 31.532157s31.54239-14.149255 31.54239-31.532157c-0.001023-17.393135-14.150278-31.54239-31.54239-31.542391z"  /><path fill="#000000" d="M512 890.342908c-10.735505 0-19.422352-8.696056-19.422352-19.422352V743.28255c0-10.726296 8.686846-19.422352 19.422352-19.422351s19.422352 8.696056 19.422352 19.422351v127.638006c0 10.726296-8.686846 19.422352-19.422352 19.422352z"  /></svg>